<?xml version="1.0" encoding="UTF-8"?>
<!DOCTYPE svg PUBLIC "-//W3C//DTD SVG 1.1//EN" "http://www.w3.org/Graphics/SVG/1.1/DTD/svg11.dtd">
<!-- Creator: CorelDRAW -->
<svg xmlns="http://www.w3.org/2000/svg" xml:space="preserve" width="1.33333in" height="0.248106in" version="1.1" style="shape-rendering:geometricPrecision; text-rendering:geometricPrecision; image-rendering:optimizeQuality; fill-rule:evenodd; clip-rule:evenodd"
viewBox="0 0 57.34 10.67"
 xmlns:xlink="http://www.w3.org/1999/xlink"
 xmlns:xodm="http://www.corel.com/coreldraw/odm/2003">
 <defs>
  <style type="text/css">
   <![CDATA[
    .fil0 {fill:black}
    .fil2 {fill:#006980}
    .fil1 {fill:#006980}
   ]]>
  </style>
 </defs>
 <g id="Layer_x0020_1">
  <metadata id="CorelCorpID_0Corel-Layer"/>
  <path class="fil0" d="M44.72 10.07c0,0.48 0.41,0.6 1.09,0.6 0.62,0 1.04,-0.09 1.04,-0.54 0,-0.42 -0.41,-0.46 -1.06,-0.49 -0.49,-0.03 -0.59,-0.05 -0.59,-0.18 0,-0.12 0.1,-0.16 0.52,-0.16 0.44,0 0.63,0.05 0.63,0.23l0.43 0c0,-0.41 -0.38,-0.57 -1.01,-0.57 -0.62,0 -1,0.12 -1,0.48 0,0.37 0.29,0.49 1.01,0.52 0.54,0.03 0.63,0.05 0.63,0.19 0,0.13 -0.14,0.18 -0.58,0.18 -0.54,0 -0.68,-0.08 -0.68,-0.26l-0.43 0zm4.19 -1.12l-2.04 0 0 0.36 0.81 0 0 1.31 0.43 0 0 -1.31 0.81 0 0 -0.36zm1.14 1.71c0.73,0 1.05,-0.31 1.05,-0.86 0,-0.55 -0.32,-0.85 -1.05,-0.85 -0.73,0 -1.05,0.3 -1.05,0.85 0,0.55 0.31,0.86 1.05,0.86zm0 -0.36c-0.44,0 -0.62,-0.16 -0.62,-0.5 0,-0.34 0.17,-0.49 0.62,-0.49 0.45,0 0.62,0.16 0.62,0.49 0,0.34 -0.17,0.5 -0.62,0.5zm3.18 -0.72c0,-0.37 -0.26,-0.61 -0.64,-0.61l-1.31 0 0 1.66 0.43 0 0 -0.44 0.69 0 0.27 0.44 0.5 0 -0.31 -0.49c0.22,-0.09 0.36,-0.29 0.36,-0.56zm-1.52 -0.25l0.76 0c0.13,0 0.33,0 0.33,0.25 0,0.25 -0.2,0.25 -0.33,0.25l-0.76 0 0 -0.5zm3.47 -0.02l0 -0.34 -1.76 0 0 1.66 1.76 0 0 -0.34 -1.33 0 0 -0.34 1.33 0 0 -0.31 -1.33 0 0 -0.34 1.33 0z"/>
  <polygon class="fil1" points="0,9.95 42.75,9.95 42.79,9.57 0.04,9.57 "/>
  <path class="fil2" d="M47.98 0.29l0.82 0c0.21,0 0.39,0.08 0.52,0.23 0.14,0.15 0.19,0.33 0.17,0.54l-0.05 0.48 -1.59 0 0.13 -1.25z"/>
  <path class="fil0" d="M5.2 4.7c0.17,-0.01 0.34,-0.05 0.5,-0.11 0.3,-0.12 0.53,-0.32 0.68,-0.6 0.08,-0.15 0.12,-0.32 0.14,-0.48l0.07 -0.67 0 -0c0,-0.16 -0.01,-0.33 -0.06,-0.48 -0.13,-0.46 -0.49,-0.68 -0.95,-0.68l-2.48 0c-0.35,0 -0.55,0.18 -0.59,0.53l-0.67 6.18 -1.66 0 0.68 -6.22c0.04,-0.35 0.13,-0.7 0.32,-1.01 0.16,-0.26 0.36,-0.49 0.6,-0.67 0.22,-0.16 0.47,-0.29 0.73,-0.37 0.23,-0.07 0.47,-0.11 0.71,-0.11l2.49 0c0.31,0 0.62,0.04 0.91,0.13 0.25,0.08 0.48,0.2 0.69,0.36 0.19,0.15 0.36,0.32 0.49,0.52 0.24,0.38 0.4,0.8 0.44,1.25 0.02,0.2 0.02,0.4 -0,0.6l-0.07 0.68c-0.03,0.32 -0.11,0.63 -0.23,0.93 -0.11,0.26 -0.25,0.51 -0.42,0.72 -0.16,0.2 -0.35,0.38 -0.56,0.54 -0.38,0.28 -0.82,0.47 -1.29,0.57 -0.2,0.04 -0.4,0.07 -0.61,0.07l-2.31 0 0.18 -1.67 2.27 0zm6.66 1.65l-1.16 0 0.18 -1.66 2.27 0 0 -0c0.17,-0.01 0.34,-0.05 0.5,-0.11 0.3,-0.12 0.53,-0.31 0.68,-0.6 0.08,-0.15 0.12,-0.31 0.14,-0.48l0.07 -0.67 0 -0c0,-0.16 -0.01,-0.33 -0.06,-0.48 -0.13,-0.46 -0.49,-0.68 -0.95,-0.68l-2.48 0c-0.35,0 -0.55,0.18 -0.59,0.53l-0.67 6.17 -1.66 0 0.68 -6.21c0.04,-0.35 0.13,-0.7 0.32,-1 0.16,-0.26 0.36,-0.49 0.6,-0.66 0.22,-0.16 0.47,-0.29 0.73,-0.37 0.23,-0.07 0.47,-0.11 0.71,-0.11l2.49 0c0.31,0 0.62,0.04 0.91,0.13 0.25,0.08 0.48,0.2 0.69,0.36 0.19,0.15 0.36,0.32 0.49,0.52 0.24,0.38 0.4,0.8 0.44,1.25 0.02,0.2 0.02,0.4 -0,0.6l-0.07 0.67c-0.03,0.32 -0.11,0.63 -0.23,0.93 -0.11,0.26 -0.25,0.5 -0.42,0.72 -0.16,0.2 -0.35,0.38 -0.56,0.54 -0.23,0.17 -0.49,0.31 -0.75,0.41l2.34 2.25 -2.52 0 -2.11 -2.03zm12.77 -1.45c-0.05,0.49 -0.19,0.96 -0.41,1.4 -0.44,0.85 -1.13,1.47 -2.02,1.82 -0.45,0.18 -0.93,0.26 -1.41,0.26l-1.05 0c-0.47,0 -0.93,-0.08 -1.37,-0.26 -0.82,-0.35 -1.39,-0.99 -1.65,-1.85 -0.14,-0.46 -0.17,-0.94 -0.11,-1.41l0.17 -1.39c0.06,-0.49 0.19,-0.96 0.42,-1.39 0.44,-0.85 1.14,-1.47 2.02,-1.82 0.45,-0.18 0.93,-0.26 1.41,-0.26l1.05 0c0.47,0 0.93,0.08 1.36,0.26 0.82,0.36 1.39,0.99 1.65,1.85 0.14,0.46 0.17,0.93 0.11,1.41l-0.17 1.39zm-1.48 -1.44c0.05,-0.47 -0.03,-0.96 -0.35,-1.32 -0.32,-0.36 -0.79,-0.5 -1.25,-0.5l-1.05 0c-0.26,0 -0.52,0.04 -0.77,0.13 -0.48,0.18 -0.84,0.51 -1.07,0.96 -0.12,0.24 -0.19,0.5 -0.22,0.77l-0.17 1.39c-0.09,0.73 0.18,1.39 0.88,1.68 0.23,0.1 0.48,0.13 0.73,0.13l1.03 0c0.52,0 1.01,-0.16 1.4,-0.51 0.39,-0.35 0.6,-0.83 0.66,-1.35l0.17 -1.39zm7.57 4.63l-1.57 0 0.38 -3.54 0.03 -0.32c0.04,-0.36 -0.04,-0.63 -0.24,-0.79 -0.2,-0.17 -0.44,-0.25 -0.71,-0.25 -0.27,0 -0.52,0.08 -0.75,0.25 -0.23,0.17 -0.36,0.43 -0.4,0.79l-0.41 3.86 -1.59 0 0.38 -3.54c0.11,-1.03 0.45,-1.72 1.03,-2.07 0.57,-0.35 1.19,-0.54 1.84,-0.57 0.35,0 0.68,0.04 1.01,0.11 0.33,0.08 0.61,0.23 0.86,0.45 0.25,-0.2 0.53,-0.34 0.85,-0.42 0.32,-0.08 0.65,-0.13 0.98,-0.15 0.67,0 1.26,0.17 1.78,0.52 0.52,0.35 0.73,1.05 0.62,2.11l-0.38 3.54 -0.79 0c-0.23,0 -0.41,-0.07 -0.53,-0.22 -0.13,-0.15 -0.18,-0.33 -0.16,-0.56l0 0 0.33 -3.09c0.04,-0.36 -0.04,-0.63 -0.24,-0.79 -0.2,-0.17 -0.44,-0.25 -0.71,-0.25 -0.27,0 -0.53,0.08 -0.77,0.25 -0.24,0.17 -0.38,0.43 -0.41,0.79l-0.03 0.32 -0.38 3.54zm5.11 -0.55c-0.29,-0.27 -0.48,-0.64 -0.56,-1.1 -0.09,-0.46 -0.1,-0.94 -0.05,-1.44 0.04,-0.41 0.14,-0.82 0.3,-1.23 0.16,-0.41 0.37,-0.75 0.64,-1.02 0.44,-0.45 0.98,-0.72 1.61,-0.81 0.63,-0.08 1.19,-0.04 1.67,0.15 0.55,0.23 0.93,0.62 1.15,1.18 0.2,0.5 0.27,1.08 0.2,1.75 -0.05,0.48 -0.15,0.9 -0.29,1.25 -0.14,0.35 -0.31,0.65 -0.5,0.89 -0.42,0.5 -0.91,0.81 -1.49,0.93 -0.51,0.14 -1.02,0.15 -1.51,0.03 -0.5,-0.11 -0.88,-0.31 -1.15,-0.58zm1.52 -4c-0.36,0.35 -0.55,0.87 -0.6,1.56 -0.04,0.69 0.03,1.17 0.23,1.44 0.08,0.12 0.23,0.22 0.44,0.31 0.22,0.08 0.45,0.09 0.69,0.02 0.24,-0.07 0.47,-0.24 0.68,-0.51 0.21,-0.27 0.36,-0.71 0.44,-1.32 0.06,-0.55 0.01,-0.96 -0.13,-1.23 -0.15,-0.27 -0.33,-0.45 -0.55,-0.52 -0.22,-0.08 -0.45,-0.08 -0.68,-0.01 -0.23,0.07 -0.41,0.16 -0.53,0.26zm5.91 -2.52l-0.19 1.82c0.2,-0.29 0.47,-0.52 0.8,-0.7 0.29,-0.15 0.63,-0.23 1.02,-0.23 0.71,0 1.26,0.3 1.65,0.89 0.39,0.59 0.54,1.36 0.44,2.29 -0.1,0.94 -0.41,1.7 -0.93,2.3 -0.26,0.29 -0.59,0.5 -0.99,0.62 -0.4,0.13 -0.79,0.19 -1.17,0.19 -0.73,0 -1.38,-0.19 -1.96,-0.57 -0.58,-0.38 -0.81,-1.11 -0.7,-2.18l0.56 -5.2 0.77 0c0.21,0 0.39,0.08 0.52,0.23 0.14,0.15 0.19,0.33 0.17,0.54zm2.16 4c0.06,-0.54 -0.01,-0.97 -0.21,-1.27 -0.19,-0.32 -0.49,-0.48 -0.88,-0.48 -0.42,0 -0.77,0.15 -1.03,0.45 -0.26,0.32 -0.42,0.75 -0.48,1.3 -0.07,0.64 -0.01,1.1 0.17,1.39 0.19,0.32 0.49,0.48 0.9,0.48 0.42,0 0.77,-0.16 1.03,-0.48 0.26,-0.32 0.42,-0.78 0.49,-1.39zm2.38 -2.98l0.82 0c0.21,0 0.39,0.08 0.52,0.23 0.14,0.15 0.19,0.33 0.17,0.54l-0.56 5.27 -1.59 0 0.65 -6.04zm2.43 -1.77l0.82 0c0.21,0 0.39,0.07 0.52,0.22 0.14,0.14 0.19,0.32 0.17,0.53l-0.76 7.07 -1.59 0 0.84 -7.82zm5.74 5.95l1.14 0c-0.23,0.64 -0.6,1.12 -1.11,1.45 -0.51,0.35 -1.12,0.52 -1.83,0.52 -0.86,0 -1.51,-0.28 -1.93,-0.84 -0.43,-0.54 -0.59,-1.33 -0.48,-2.34 0.1,-0.97 0.42,-1.73 0.95,-2.27 0.54,-0.56 1.25,-0.84 2.11,-0.84 0.91,0 1.58,0.27 2.03,0.82 0.42,0.56 0.58,1.34 0.48,2.34 -0.01,0.06 -0.01,0.11 -0.02,0.16 -0.01,0.05 -0.01,0.08 -0.01,0.09 -0.01,0.08 -0.02,0.13 -0.04,0.16l-3.93 0c-0.03,0.47 0.04,0.82 0.23,1.05 0.17,0.24 0.45,0.36 0.85,0.36 0.26,0 0.48,-0.05 0.67,-0.16 0.05,-0.02 0.09,-0.04 0.13,-0.08 0.04,-0.04 0.09,-0.08 0.14,-0.13 0.02,-0.04 0.08,-0.1 0.19,-0.18 0.11,-0.08 0.25,-0.11 0.43,-0.11zm-2.54 -1.77l2.32 0c0.01,-0.41 -0.06,-0.71 -0.22,-0.91 -0.18,-0.21 -0.44,-0.32 -0.81,-0.32 -0.33,0 -0.62,0.11 -0.85,0.32 -0.24,0.21 -0.38,0.52 -0.44,0.91z"/>
 </g>
</svg>
